PathFileType	4	(X/Y/Z)	C:/Users/Carlo/Dropbox/Carlos/SARAH/CongressoMarcha2025/WorkshopOpenSim/C3D/Caso02/Walking03.c3d.trc
DataRate	CameraRate	NumFrames	NumMarkers	Units	OrigDataRate	OrigDataStartFrame	OrigNumFrames
100.000000	100.000000	2	197	mm	100.000000	100	400
Frame#	Time	PELO			PELA			PELL			PELP			LFEO			LFEA			LFEL			LFEP			LTIO			LTIA			LTIL			LTIP			LFOO			LFOA			LFOL			LFOP			RFEO			RFEA			RFEL			RFEP			RTIO			RTIA			RTIL			RTIP			RFOO			RFOA			RFOL			RFOP			LTOO			LTOA			LTOL			LTOP			RTOO			RTOA			RTOL			RTOP			HEDO			HEDA			HEDL			HEDP			LCLO			LCLA			LCLL			LCLP			RCLO			RCLA			RCLL			RCLP			TRXO			TRXA			TRXL			TRXP			LHUO			LHUA			LHUL			LHUP			LRAO			LRAA			LRAL			LRAP			LHNO			LHNA			LHNL			LHNP			RHUO			RHUA			RHUL			RHUP			RRAO			RRAA			RRAL			RRAP			RHNO			RHNA			RHNL			RHNP			LFHD			RFHD			RBHD			LSHO			LUPA			LELB			LFRM			LWRA			LWRB			LFIN			RSHO			RUPA			RELB			RFRM			RWRA			RWRB			RFIN			LTHI			LKNE			LTIB			LANK			LTOE			RKNE			RTIB			RANK			LASI			LHEE			LBHD			RTHI			RHEE			RTOE			STRN			RASI			CLAV			RPSI			C7			LPSI			RBAK			T10			LHipAngles			LKneeAngles			LAbsAnkleAngle			LAnkleAngles			RHipAngles			RKneeAngles			RAnkleAngles			RAbsAnkleAngle			LPelvisAngles			RPelvisAngles			LFootProgressAngles			RFootProgressAngles			RNeckAngles			LNeckAngles			RSpineAngles			LSpineAngles			LShoulderAngles			LElbowAngles			LWristAngles			RShoulderAngles			RElbowAngles			RWristAngles			RThoraxAngles			LThoraxAngles			RHeadAngles			LHeadAngles			LHipPower			LKneePower			LAnklePower			RHipPower			RKneePower			RAnklePower			LWaistPower			RWaistPower			LNeckPower			RNeckPower			LShoulderPower			RShoulderPower			LElbowPower			RElbowPower			LWristPower			RWristPower			LGroundReactionForce			LNormalisedGRF			RGroundReactionForce			RNormalisedGRF			LAnkleForce			RAnkleForce			RKneeForce			LKneeForce			RHipForce			LHipForce			LWaistForce			RWaistForce			LNeckForce			RNeckForce			LShoulderForce			RShoulderForce			LElbowForce			RElbowForce			LWristForce			RWristForce			LGroundReactionMoment			RGroundReactionMoment			LAnkleMoment			RAnkleMoment			RKneeMoment			LKneeMoment			RHipMoment			LHipMoment			LWaistMoment			RWaistMoment			LNeckMoment			RNeckMoment			LShoulderMoment			RShoulderMoment			LElbowMoment			RElbowMoment			LWristMoment			RWristMoment			CentreOfMass			CentreOfMassFloor			
		X1	Y1	Z1	X2	Y2	Z2	X3	Y3	Z3	X4	Y4	Z4	X5	Y5	Z5	X6	Y6	Z6	X7	Y7	Z7	X8	Y8	Z8	X9	Y9	Z9	X10	Y10	Z10	X11	Y11	Z11	X12	Y12	Z12	X13	Y13	Z13	X14	Y14	Z14	X15	Y15	Z15	X16	Y16	Z16	X17	Y17	Z17	X18	Y18	Z18	X19	Y19	Z19	X20	Y20	Z20	X21	Y21	Z21	X22	Y22	Z22	X23	Y23	Z23	X24	Y24	Z24	X25	Y25	Z25	X26	Y26	Z26	X27	Y27	Z27	X28	Y28	Z28	X29	Y29	Z29	X30	Y30	Z30	X31	Y31	Z31	X32	Y32	Z32	X33	Y33	Z33	X34	Y34	Z34	X35	Y35	Z35	X36	Y36	Z36	X37	Y37	Z37	X38	Y38	Z38	X39	Y39	Z39	X40	Y40	Z40	X41	Y41	Z41	X42	Y42	Z42	X43	Y43	Z43	X44	Y44	Z44	X45	Y45	Z45	X46	Y46	Z46	X47	Y47	Z47	X48	Y48	Z48	X49	Y49	Z49	X50	Y50	Z50	X51	Y51	Z51	X52	Y52	Z52	X53	Y53	Z53	X54	Y54	Z54	X55	Y55	Z55	X56	Y56	Z56	X57	Y57	Z57	X58	Y58	Z58	X59	Y59	Z59	X60	Y60	Z60	X61	Y61	Z61	X62	Y62	Z62	X63	Y63	Z63	X64	Y64	Z64	X65	Y65	Z65	X66	Y66	Z66	X67	Y67	Z67	X68	Y68	Z68	X69	Y69	Z69	X70	Y70	Z70	X71	Y71	Z71	X72	Y72	Z72	X73	Y73	Z73	X74	Y74	Z74	X75	Y75	Z75	X76	Y76	Z76	X77	Y77	Z77	X78	Y78	Z78	X79	Y79	Z79	X80	Y80	Z80	X81	Y81	Z81	X82	Y82	Z82	X83	Y83	Z83	X84	Y84	Z84	X85	Y85	Z85	X86	Y86	Z86	X87	Y87	Z87	X88	Y88	Z88	X89	Y89	Z89	X90	Y90	Z90	X91	Y91	Z91	X92	Y92	Z92	X93	Y93	Z93	X94	Y94	Z94	X95	Y95	Z95	X96	Y96	Z96	X97	Y97	Z97	X98	Y98	Z98	X99	Y99	Z99	X100	Y100	Z100	X101	Y101	Z101	X102	Y102	Z102	X103	Y103	Z103	X104	Y104	Z104	X105	Y105	Z105	X106	Y106	Z106	X107	Y107	Z107	X108	Y108	Z108	X109	Y109	Z109	X110	Y110	Z110	X111	Y111	Z111	X112	Y112	Z112	X113	Y113	Z113	X114	Y114	Z114	X115	Y115	Z115	X116	Y116	Z116	X117	Y117	Z117	X118	Y118	Z118	X119	Y119	Z119	X120	Y120	Z120	X121	Y121	Z121	X122	Y122	Z122	X123	Y123	Z123	X124	Y124	Z124	X125	Y125	Z125	X126	Y126	Z126	X127	Y127	Z127	X128	Y128	Z128	X129	Y129	Z129	X130	Y130	Z130	X131	Y131	Z131	X132	Y132	Z132	X133	Y133	Z133	X134	Y134	Z134	X135	Y135	Z135	X136	Y136	Z136	X137	Y137	Z137	X138	Y138	Z138	X139	Y139	Z139	X140	Y140	Z140	X141	Y141	Z141	X142	Y142	Z142	X143	Y143	Z143	X144	Y144	Z144	X145	Y145	Z145	X146	Y146	Z146	X147	Y147	Z147	X148	Y148	Z148	X149	Y149	Z149	X150	Y150	Z150	X151	Y151	Z151	X152	Y152	Z152	X153	Y153	Z153	X154	Y154	Z154	X155	Y155	Z155	X156	Y156	Z156	X157	Y157	Z157	X158	Y158	Z158	X159	Y159	Z159	X160	Y160	Z160	X161	Y161	Z161	X162	Y162	Z162	X163	Y163	Z163	X164	Y164	Z164	X165	Y165	Z165	X166	Y166	Z166	X167	Y167	Z167	X168	Y168	Z168	X169	Y169	Z169	X170	Y170	Z170	X171	Y171	Z171	X172	Y172	Z172	X173	Y173	Z173	X174	Y174	Z174	X175	Y175	Z175	X176	Y176	Z176	X177	Y177	Z177	X178	Y178	Z178	X179	Y179	Z179	X180	Y180	Z180	X181	Y181	Z181	X182	Y182	Z182	X183	Y183	Z183	X184	Y184	Z184	X185	Y185	Z185	X186	Y186	Z186	X187	Y187	Z187	X188	Y188	Z188	X189	Y189	Z189	X190	Y190	Z190	X191	Y191	Z191	X192	Y192	Z192	X193	Y193	Z193	X194	Y194	Z194	X195	Y195	Z195	X196	Y196	Z196	X197	Y197	Z197	

101	1	-529.4345703125002	935.838500976563	333.4225463867189	-400.014831542969	936.8157348632817	321.4175109863282	-541.4556884765627	938.2048339843755	204.0222015380861	-530.188903808594	1065.792358398438	335.8690795898439	-444.2820129394534	539.1542968750002	205.256072998047	-54.54971313476565	610.4538574218752	321.9558410644532	-342.8894042968751	625.023132324219	-185.8190917968751	-536.0534667968752	936.8182983398442	268.7783813476564	-640.987487792969	174.3330230712891	259.7775878906251	-301.6998901367189	-18.99555969238282	190.2515563964844	-726.8760986328127	162.7975463867188	-127.2831420898438	-454.3515319824221	520.4788208007815	208.0470581054689	-541.8899536132815	104.2434616088868	205.7883453369142	-456.5339050292971	268.3122863769532	190.9645996093751	-602.9895629882815	120.2682418823243	31.3348846435547	-694.8774414062502	189.3822631835938	267.1904602050782	-531.8052978515627	512.985290527344	385.8418884277346	-141.3087768554688	509.3102722167971	225.5091705322267	-691.9279785156252	527.707946777344	-4.480529785156252	-522.815612792969	934.8591308593755	398.0667724609377	-595.8264160156252	82.06538391113284	394.159118652344	-200.752166748047	21.26533889770509	285.125701904297	-704.8170166015627	90.544303894043	-5.487945556640627	-534.9495849609377	491.821472167969	386.2503662109377	-461.5496520996096	65.81963348388675	405.964538574219	-455.3238525390627	255.1487426757814	397.4444885253909	-463.3494873046877	57.35443115234378	216.5391998291017	-651.0618286132815	72.11983489990237	407.4836425781252	-490.8941955566409	75.863883972168	185.3209533691407	-462.4421691894534	130.5534667968751	180.3796997070313	-511.2607421875002	81.20549774169925	127.1697845458985	-541.8900146484377	104.2434921264649	205.7883300781251	-398.3789367675784	63.71956253051761	405.458190917969	-396.3036193847659	126.8292617797852	402.6181945800784	-398.9788513183596	60.89785385131839	342.3164062500001	-461.5496520996096	65.8196716308594	405.964538574219	-547.8100585937502	1654.233520507813	365.9102783203126	-335.1563110351564	1575.078979492188	347.0466613769532	-562.1119384765627	1669.837402343751	139.2058258056641	-467.7054443359377	1867.151367187501	375.5117492675782	-587.254333496094	1414.538940429688	164.5630798339844	-396.4861450195315	1408.941162109375	57.97174072265628	-600.8129882812502	1629.797851562501	128.9922790527344	-481.380798339844	1452.1923828125	352.0691833496095	-543.3088989257815	1397.878295898438	554.3480224609377	-333.887420654297	1384.912719726563	614.9814453125002	-540.2385253906252	1186.729736328125	498.592224121094	-481.380798339844	1452.192504882813	352.0690917968751	-481.3808288574221	1452.1923828125	352.0692138671876	-264.2622375488282	1439.508666992188	331.0377807617189	-460.988220214844	1441.018310546875	569.3316650390627	-495.0680847167971	1234.343872070313	342.1497192382814	-668.2610473632815	1138.512084960938	114.6543426513672	-948.7038574218755	1219.281127929688	123.1364364624024	-674.0487060546877	1088.219604492188	402.1973266601565	-587.2542724609377	1414.538940429688	164.5631103515626	-581.4941406250002	879.0783081054692	71.02472686767581	-826.1022949218755	800.4116821289067	52.34212493896487	-586.6010742187502	834.7011108398442	324.7474670410157	-662.1873779296877	1120.351806640625	111.6002960205079	-538.730895996094	728.5611572265627	18.04212760925294	-491.4007873535159	792.9093627929692	-126.5623016357422	-691.1199340820315	706.3089599609377	-41.73805236816408	-581.4941406250002	879.0783691406255	71.0247497558594	-580.6873168945315	1115.726684570313	614.5329589843752	-863.549194335938	1163.5068359375	662.855407714844	-523.9348144531252	1168.03759765625	895.017456054688	-543.3088378906252	1397.878173828125	554.3480224609377	-419.053894042969	892.3679199218755	623.485290527344	-620.8302001953127	749.060241699219	691.0394287109377	-369.0059204101564	938.4989624023442	870.8340454101567	-569.3730468750002	1100.091552734375	615.159606933594	-335.6633605957032	757.0223388671877	641.8220214843752	-295.8041076660157	801.6873168945317	790.2299804687505	-205.0268402099611	829.7908325195317	584.8353271484377	-419.053894042969	892.3679199218755	623.4852294921877	-345.3897094726564	1656.311645507813	288.9232177734376	-344.9092712402345	1646.926391601563	416.967468261719	-475.7365417480471	1698.720458984376	435.9618835449221	-590.8518066406252	1471.652709960938	155.125228881836	-610.763854980469	1307.893432617188	99.40168762207037	-648.617370605469	1139.76123046875	75.86237335205081	-623.2720947265627	1014.586853027344	47.45643234252931	-544.7874755859377	890.6234741210942	80.23001861572268	-613.6351318359377	871.5581054687505	49.21170043945315	-552.6333618164065	813.6030273437505	22.77682113647462	-544.1242675781252	1453.950439453125	569.154479980469	-551.0465087890627	1241.514770507813	635.4736938476565	-558.1431884765627	1120.607055664063	651.4136962890627	-458.2442932128909	1010.220397949219	654.9615478515627	-384.7718200683596	910.8554077148442	616.259460449219	-449.6779479980471	877.488159179688	643.7341308593752	-371.1475830078126	831.663940429688	655.845397949219	-466.1189880371096	786.3662719726567	127.1450576782227	-429.4301757812502	551.7321777343752	147.9719543457032	-544.6340942382815	378.4367980957032	162.4384307861329	-650.7316894531252	173.0242919921876	215.864715576172	-540.3831176757815	76.25708770751956	210.9972076416017	-508.8572387695315	510.8753356933596	441.7809753417971	-551.4759521484377	261.2999267578126	454.9132385253909	-583.988952636719	81.14448547363284	437.5644836425784	-491.130554199219	1038.137451171875	223.0708770751954	-693.968444824219	158.8262329101563	281.4507141113282	-493.6775512695315	1708.410644531251	294.6878356933595	-492.4972229003909	664.3994140625002	478.1074218750002	-650.2965087890627	48.97736740112308	394.6759338378909	-448.8680419921877	42.671932220459	391.7219543457034	-430.428894042969	1281.512573242188	337.190643310547	-471.1205139160159	1034.198486328125	438.467956542969	-474.4251708984377	1451.786010742188	351.3954162597657	-663.8367309570315	1031.663330078125	419.2080383300784	-607.2825317382815	1530.033081054688	366.5721435546876	-675.5787353515627	1037.746948242188	281.4527893066407	-690.9458007812502	1353.7705078125	415.3262329101565	-678.898620605469	1260.706420898438	360.760223388672	-6.605564594268802	21.58338165283204	13.28095722198487	24.8617343902588	-17.61822700500489	37.93515396118165	0	0	1.758965015411378	2.749533891677857	-9.075894355773929	1.781265854835511	0.7222598791122439	17.00328636169434	-1.492391228675843	0.2057568430900575	-7.092939376831058	7.732824325561527	3.269517660140993	-14.82410621643067	6.780568599700931	0	0	6.553869724273685	1.078515887260437	-5.300400257110597	-0.3325529098510743	-1.078515887260437	5.300400257110597	-0.3325529098510743	4.856913566589357	-19.32600402832032	-60.90369796752933	-2.575307846069337	0.4589891433715823	-88.0959396362305	1.099586367607117	1.687522172927857	16.97234725952149	-1.099586367607117	-1.687522172927857	16.97234725952149	1.888530254364015	-0.04047746211290361	3.764227867126467	-1.888530254364015	0.04047746211290361	3.764227867126467	8.667336463928226	6.127754211425785	-11.79214382171631	-1.590277359294756e-15	1.98228065906303e-12	34.3685989379883	9.441800117492679	108.6156997680665	-3.236525774002077	14.14269542694093	5.220487594604494	-5.23759698867798	1.987846778527784e-15	-3.749874109143516e-12	44.21302032470705	3.442974090576174	95.88342285156253	-5.332635879516603	-2.601974248886109	5.529131412506105	3.595134019851686	2.601974248886109	-5.529131412506105	3.595134019851686	-2.416826248168946	4.756492137908937	-20.61746215820313	2.416826248168946	-4.756492137908937	-20.61746215820313	0	0.06226732581853869	0	0	0.2299128025770188	0	0	0.01107316557317973	0	0	-0.2431494742631913	0	0	-0.1236022263765336	0	0	-0.3565806150436402	0	0	-0.1281930059194565	0	0	-0.1281930059194565	0	0	0.04012890160083772	0	0	0.04012890160083772	0	0	-0.01864974573254586	0	0	-0.001611466635949911	0	0	0.01148445717990399	0	0	0.01648198999464513	0	0	-0.0001350699603790418	0	0	9.237634003511633e-06	0	nan	nan	nan	nan	nan	nan	-0.4507321715354922	7.06956768035889	-0.4393308758735659	-4.478398323059084	72.0649108886719	4.594619274139406	0.06449119001626971	0.03365448489785196	-0.168166995048523	-0.1752690076828003	0.6914979815483095	6.966831207275394	-0.6912649869918825	-6.391325473785404	1.371198654174805	0.1277946531772614	0.4507134556770327	-0.1207401975989342	-0.7555546760559086	-5.716521739959719	0.5396633148193362	0.2978477180004121	1.089479088783265	0.01470198575407267	-0.2084469944238664	-3.694806575775148	0.4059247672557833	-0.2084469944238664	-3.694806575775148	0.4059247672557833	-0.02140181884169579	-0.4450377523899081	-0.4109984338283541	-0.02140181884169579	-0.4450377523899081	-0.4109984338283541	-0.0671341270208359	0.3368939757347108	0.02653412893414499	0.02488999441266061	0.3222285509109498	0.1007260456681252	-0.02470260486006738	0.1271982640028	-0.09041906148195269	0.01685413159430028	0.1452211439609528	-0.06881534308195117	-0.0194778684526682	0.03467319533228876	0.01988390274345875	0.01033485122025013	0.04793152213096621	0.006005764007568363	nan	nan	nan	-122.4274215698243	-48.79444885253909	-654.1304321289065	5.684341547267626e-15	8.601501464843754	-17.16150093078614	437.148376464844	60.43280029296878	655.7520751953127	555.2495117187502	127.2727966308594	-158.3742065429688	47.57334899902345	7.850682258605961	68.08869934082034	888.7705078125005	53.80347442626956	6.286437511444095	122.374496459961	-18.18208885192872	-7.129861831665043	-334.241424560547	-13.51799488067628	-352.7332153320314	334.241424560547	13.51799488067628	-352.7332153320314	-367.4979553222657	43.33604049682619	-121.7213211059571	367.4979553222657	-43.33604049682619	-121.7213211059571	15.30101585388184	-2.337948322296143	-16.72648811340333	9.355181694030765	-1.366041660308838	9.96278285980225	4.592845916748049	0.3086667954921724	-17.19742584228516	1.999843120574952	0.03976955264806749	-9.791802406311039	1.237548828125	-8.526512638538793e-16	1.312865972518921	0.4981041550636294	-2.605323526801683e-16	0.1510227620601655	-536.9947509765627	1019.784240722657	333.381072998047	-536.9947509765627	0	333.381072998047	
102	1.01	-518.309265136719	935.7601928710942	332.9407958984376	-388.8251953125002	936.448852539063	321.6294860839845	-529.6322021484377	938.3599243164067	203.4819793701173	-518.7689208984377	1065.71142578125	335.5906066894532	-428.8365783691409	540.4715576171877	205.1860504150392	-41.96044921875001	614.3387451171877	328.2229614257814	-321.9363708496095	628.159851074219	-183.5950775146485	-524.5799560546877	936.857788085938	268.2637939453126	-605.6352539062502	163.7367248535157	258.8792419433595	-256.1453857421876	-11.16329956054688	182.4896240234376	-696.6003417968752	151.2019958496094	-128.5956726074219	-437.8533935546877	521.2579345703127	207.9244079589845	-503.2376098632815	100.4760971069337	202.6607666015626	-428.3110656738284	269.6314697265626	188.6446228027344	-567.7607421875002	114.6905899047852	29.2864227294922	-660.230407714844	175.3652038574219	267.2272949218751	-529.373962402344	513.079772949219	386.097595214844	-137.7284545898438	501.2648620605471	229.127899169922	-685.830261230469	530.215515136719	-5.556732177734377	-512.0386962890627	934.6625976562505	397.6177673339846	-595.4100341796877	82.20685577392581	393.8857727050784	-199.3992309570314	19.60697555541993	288.3973388671876	-700.782653808594	91.11075592041018	-6.973968505859379	-532.6152954101565	491.9300842285159	386.479919433594	-461.2369384765627	65.62458038330081	406.3808593750002	-454.517517089844	254.9508056640626	398.1781311035159	-462.048522949219	57.44551086425784	216.9361572265626	-650.7390747070315	72.3727951049805	406.9013366699221	-450.9067077636721	75.51303863525393	181.1386108398438	-425.9311828613284	131.8981475830079	176.4666290283204	-472.4143981933596	80.25124359130862	123.3471298217774	-503.2376403808596	100.4761047363282	202.6607818603517	-398.0695495605471	63.37518310546878	406.2073974609377	-395.8297119140627	126.4839324951172	403.4731445312502	-398.340026855469	60.64882278442386	343.0591430664064	-461.2369079589846	65.62461090087893	406.3808593750002	-535.137634277344	1654.495605468751	365.2279052734376	-322.9655151367189	1574.244140625001	345.5909423828126	-550.2906494140627	1669.896362304688	138.5648498535157	-453.920104980469	1867.017211914063	374.2381896972657	-576.2298583984377	1414.53662109375	164.4695434570313	-385.9813537597659	1408.576171875	57.04710388183597	-589.6789550781252	1629.734252929688	128.7102661132813	-469.4861145019534	1452.273559570313	351.4221801757814	-531.0415039062502	1398.401977539063	553.9146118164065	-321.5222167968751	1385.23486328125	614.1030883789065	-528.4031372070315	1187.170288085938	498.5200500488284	-469.4861145019534	1452.273559570313	351.4222412109376	-469.4862060546877	1452.2734375	351.4222106933595	-252.4200134277345	1439.22998046875	330.349090576172	-449.0650329589846	1441.151123046875	568.657653808594	-483.5283508300784	1234.470458984375	341.5908508300782	-660.820983886719	1139.66650390625	114.5961837768555	-940.138061523438	1223.77880859375	124.7769317626954	-665.6057128906252	1088.989990234375	402.0079650878909	-576.2299804687502	1414.536499023438	164.4695892333985	-575.6453857421877	879.7267456054692	70.18149566650393	-820.8563842773442	802.4043579101567	52.46605300903323	-579.8698730468752	834.9813842773442	323.9551086425782	-654.8587036132815	1121.470703125	111.4871826171876	-533.8432617187502	728.893493652344	17.04612350463868	-487.7363586425784	792.8494262695317	-128.2303466796876	-686.9713134765627	706.9749755859377	-41.20198822021486	-575.6453857421877	879.7267456054692	70.18147277832034	-565.6395263671877	1116.27587890625	615.9683837890627	-848.7238769531255	1161.834716796875	665.2672119140627	-508.1159667968752	1170.792846679688	895.8999023437505	-531.0415039062502	1398.40185546875	553.914489746094	-398.5042114257815	897.0136718750005	624.3250122070315	-596.1627197265627	748.9927368164065	693.7693481445315	-347.7854003906251	945.0815429687505	871.1420898437505	-553.9400634765627	1100.927490234375	616.5533447265627	-311.6958618164064	763.751647949219	642.3342895507815	-274.2735900878907	808.280639648438	791.4501342773442	-182.5344238281251	840.414428710938	587.0267333984377	-398.5041503906252	897.0136718750005	624.3250732421877	-333.051971435547	1655.457641601563	287.4257812500001	-332.0435791015626	1646.223876953126	415.4461059570315	-462.529479980469	1698.685546875001	434.921813964844	-579.7988281250002	1471.6435546875	154.9800872802735	-601.9295654296877	1308.499389648438	99.22948455810553	-641.6029052734377	1140.829711914063	75.58895111083987	-617.173278808594	1015.47705078125	46.73478317260744	-538.834899902344	891.190063476563	78.99575042724612	-608.0073852539065	872.2609863281255	48.7089767456055	-547.4544067382815	814.0277709960942	21.76375007629395	-531.7421875000002	1454.500610351563	568.6262207031252	-537.432800292969	1242.585205078125	636.211364746094	-543.289733886719	1121.65771484375	652.8977050781252	-440.8716430664065	1013.562133789063	656.2653808593752	-364.6473693847657	916.4962768554692	617.5214843750002	-428.8997497558596	881.1149291992192	644.2119140625002	-349.2710571289064	837.3281250000005	656.6273193359377	-451.3448486328127	788.5729370117192	127.0092010498047	-413.163024902344	553.328308105469	148.1834716796876	-521.357849121094	374.1355285644532	162.7317047119141	-615.9148559570315	162.3202209472657	215.092010498047	-500.1143798828127	72.72468566894534	207.5895843505861	-506.9486389160159	510.6235961914065	442.2342529296877	-550.8293457031252	261.2755737304689	454.9801330566409	-583.972351074219	81.24037170410159	437.3971862792971	-479.1757507324221	1038.142822265625	222.9311981201173	-657.6960449218752	145.0396423339844	281.165496826172	-481.0335388183596	1708.322753906251	293.7227783203126	-487.9071350097659	664.1611328125002	478.186950683594	-650.193786621094	49.12715530395511	394.4079895019534	-448.7513427734377	42.52667617797853	392.173767089844	-418.634948730469	1281.548706054688	336.855438232422	-460.3230285644534	1033.814331054688	438.480895996094	-462.5313720703127	1451.85546875	350.747039794922	-653.1809692382815	1031.760009765625	417.7163085937502	-595.1533203125002	1530.30712890625	366.1853942871095	-663.7913208007815	1038.119384765625	280.1102905273439	-679.0137939453127	1354.130004882813	415.3479919433596	-667.3919067382815	1261.005615234375	360.2334594726564	-6.478353500366214	22.17802810668946	13.93949699401856	24.86714363098146	-20.30066680908204	34.78537368774415	0	0	2.215439796447755	2.753906965255738	-9.092708587646488	2.243636131286622	0.6179298162460329	16.79936599731446	-2.512213706970216	-0.03169838711619379	-7.128728389739994	6.864451408386234	3.214575052261354	-14.60299015045167	6.899630546569828	0	0	6.675712108612064	1.168123960494996	-4.993463993072512	-0.2026729583740235	-1.168123960494996	4.993463993072512	-0.2026729583740235	4.621893882751467	-20.36491775512696	-64.49778747558597	-2.479287862777711	0.1572548747062684	-87.96054840087893	1.051775336265564	1.482093572616578	17.18215942382813	-1.051775336265564	-1.482093572616578	17.18215942382813	1.774057388305665	-0.3620295226573945	3.738332748413088	-1.774057388305665	0.3620295226573945	3.738332748413088	8.778832435607914	5.930347919464113	-12.42944717407227	1.590277359294756e-15	-6.846144202758701e-13	34.75152587890626	9.337627410888675	108.2360916137696	-3.209985733032228	14.54580688476563	5.322021484375002	-4.636393070220949	-1.987846778527784e-15	2.477652197990788e-12	45.14903259277345	3.410044431686403	94.77946472167972	-5.344882965087892	-2.579180002212525	5.540687561035158	3.688833951950075	2.579180002212525	-5.540687561035158	3.688833951950075	-2.267925024032594	4.951455116271974	-20.91491699218751	2.267925024032594	-4.951455116271974	-20.91491699218751	0	0.01971516013145447	0	0	0.1709922999143601	0	0	0.007003639359027151	0	0	-0.3720877766609193	0	0	-0.106377199292183	0	0	-0.4164089262485506	0	0	-0.06946229189634326	0	0	-0.06946229189634326	0	0	0.1454053968191147	0	0	0.1454053968191147	0	0	-0.01854851283133031	0	0	-0.003314831061288716	0	0	0.01044420339167118	0	0	0.01512137800455094	0	0	-0.0001265263854293153	0	0	6.521286650240658e-06	0	nan	nan	nan	nan	nan	nan	-0.3968962132930758	7.149696826934818	-0.4291533827781679	-4.374652385711672	72.88172149658206	4.045833110809328	0.07304271310567859	0.01797642000019551	-0.18314328789711	-0.06426928192377093	0.6672890782356264	6.943882942199711	-0.5640257000923159	-6.374665737152103	1.438550710678101	0.1231275349855424	0.4859370887279513	-0.1515388190746308	-0.6249366998672488	-5.700642585754396	0.7694250941276555	0.2759892344474794	1.12792706489563	0.02625333331525327	-0.02255032025277615	-3.615405797958376	0.4903660714626314	-0.02255032025277615	-3.615405797958376	0.4903660714626314	0.2986139655113221	-0.5498744249343874	0.325576812028885	0.2986139655113221	-0.5498744249343874	0.325576812028885	-0.06884001195430758	0.3423470854759217	0.01831173151731492	0.02162128314375878	0.3268771469593049	0.09125653654336932	-0.023989275097847	0.1278732717037201	-0.09131515026092532	0.01220422331243754	0.1444879770278931	-0.07016912847757342	-0.01784522272646428	0.03534331545233728	0.01830090768635274	0.009959840215742592	0.04671918973326684	0.005633832421153786	nan	nan	nan	-127.0773391723633	-43.22652816772462	-639.5439453125002	-1.894780727514112e-15	9.137264251708988	-18.31222343444825	439.0107421875002	50.27202987670901	675.132995605469	501.9079895019534	118.1181869506837	-163.9409179687501	58.26282119750979	8.356434822082523	50.42099761962893	787.4198608398442	60.30190277099612	-95.16675567626956	110.6095352172852	-25.57695198059083	18.94495964050294	-189.859848022461	-19.13236808776856	-397.2392578125002	189.859848022461	19.13236808776856	-397.2392578125002	-89.87136077880862	-15.00632667541505	-392.3545837402346	89.87136077880862	15.00632667541505	-392.3545837402346	14.91498947143555	-2.204738378524781	-17.51924705505372	7.169152736663822	-1.146723628044129	9.451582908630375	4.25493097305298	0.2685528993606568	-16.33617401123048	1.662657380104066	0.0453825779259205	-9.411534309387211	1.046646475791932	-4.736951686436382e-17	1.211571693420411	0.5175006389617922	1.065814079817349e-16	0.1928971260786058	-525.3098144531252	1019.738525390625	332.9773254394532	-525.3098144531252	0	332.9773254394532	
